<svg xmlns="http://www.w3.org/2000/svg" viewBox="0 0 30 30"><defs><style>.cls-1{fill:#ead557;}.cls-2{fill:#f5e460;}.cls-3{fill:#a1aad6;}.cls-4{fill:#b9c0ec;}</style></defs><g id="Layer_2" data-name="Layer 2"><path class="cls-1" d="M8.46029,14.503V18.9645a2.46612,2.46612,0,0,0,2.47065,2.47065h8.46358l3.2568,1.90916a.55727.55727,0,0,0,.827-.60232l-.14289-.6432L23.0189,20.7307a2.459,2.459,0,0,0,.74527-1.7662V14.503a2.46612,2.46612,0,0,0-2.47066-2.47065H10.93094a2.27,2.27,0,0,0-.99028.21435A2.44723,2.44723,0,0,0,8.46029,14.503Z"/><path class="cls-2" d="M9.5833,13.52287v4.4615A2.47491,2.47491,0,0,0,12.054,20.46531h8.46357l2.8178,1.63348L23.0189,20.7307a2.459,2.459,0,0,0,.74527-1.7662V14.503a2.46612,2.46612,0,0,0-2.47066-2.47065H10.93094a2.27,2.27,0,0,0-.99028.21435A2.44578,2.44578,0,0,0,9.5833,13.52287Z"/><path class="cls-3" d="M20.4494,7.98039v4.37a2.41554,2.41554,0,0,1-2.42,2.42h-8.29l-3.19,1.87a.54584.54584,0,0,1-.81-.59l.14-.63.31-1.34a2.40863,2.40863,0,0,1-.73-1.73v-4.37a2.41554,2.41554,0,0,1,2.42-2.42h10.15a2.22339,2.22339,0,0,1,.97.21A2.397,2.397,0,0,1,20.4494,7.98039Z"/><path class="cls-4" d="M19.34943,7.02037v4.37a2.42416,2.42416,0,0,1-2.42005,2.43006h-8.29l-2.76,1.6.31-1.34a2.40863,2.40863,0,0,1-.73-1.73v-4.37a2.41554,2.41554,0,0,1,2.42-2.42h10.15a2.22339,2.22339,0,0,1,.97.21A2.39562,2.39562,0,0,1,19.34943,7.02037Z"/></g></svg>