<svg xmlns="http://www.w3.org/2000/svg" viewBox="0 0 30 30"><defs><style>.cls-1{fill:#ffbfab;}.cls-2{fill:#eaa492;}.cls-3{fill:#96c9d6;}.cls-4{fill:#b4deec;}</style></defs><g id="Layer_2" data-name="Layer 2"><path class="cls-1" d="M5.93449,15.41418a1.25318,1.25318,0,0,0,1.25317,1.25318h3.37671l-.27411.30169a6.76816,6.76816,0,0,0-.68084,3.90876,1.24808,1.24808,0,0,0,1.24279,1.15374h.1366a1.2721,1.2721,0,0,0,1.23969-1.12793c.66974-4.595,6.93408-5.45971,6.93408-5.45971l.26477-1.87812.57361-.11749L19.50456,8.161,15.49894,6.93994H9.51829A1.25317,1.25317,0,0,0,8.26512,8.19311a1.23994,1.23994,0,0,0,.67041,1.0907,1.24327,1.24327,0,0,0,.12463,2.4812H8.14677a1.2508,1.2508,0,0,0-.50537,2.396H7.18766A1.25322,1.25322,0,0,0,5.93449,15.41418Z"/><path class="cls-2" d="M8.10447,14.08688a1.24384,1.24384,0,0,0,.75,1.14H8.40452a1.26112,1.26112,0,0,0-1.26,1.26.48611.48611,0,0,0,.01.12,1.25526,1.25526,0,0,1,.04-2.51h.45a1.25262,1.25262,0,0,1,.51-2.4h.88a1.24965,1.24965,0,0,0,1.24,1.14h-.91A1.25263,1.25263,0,0,0,8.10447,14.08688Z"/><path class="cls-2" d="M19.5745,8.87686l-2.86-.87h-5.98a1.24227,1.24227,0,0,0-.58,2.35,1.22921,1.22921,0,0,0-1.13,1.22.48663.48663,0,0,0,.01.12,1.25086,1.25086,0,0,1-1.22-1.25,1.23767,1.23767,0,0,1,1.12-1.23,1.24071,1.24071,0,0,1-.67-1.09,1.259,1.259,0,0,1,1.26-1.25h5.98l4,1.22Z"/><path class="cls-2" d="M19.97917,13.45154l-.57.11-.27,1.88s-6.26.87-6.93,5.46a1.27033,1.27033,0,0,1-1.24,1.13h-.14a1.24358,1.24358,0,0,1-1.24-1.15c-.02-.25-.04-.50995-.04-.81a1.1672,1.1672,0,0,0,.66.2h.13995a1.28663,1.28663,0,0,0,1.24005-1.13c.67-4.6,6.93-5.46,6.93-5.46l.27-1.88.57-.12-.35-3.66.47.14Z"/><path class="cls-3" d="M23.59419,6.81131v9.86h-3.24a1.676,1.676,0,0,1-.55-.1,1.50808,1.50808,0,0,1-.97-1.25995.55373.55373,0,0,1-.02-.18006v-6.78a1.54063,1.54063,0,0,1,1.54-1.54Z"/><path class="cls-4" d="M22.97419,6.81131v8.8h-3.24a1.67574,1.67574,0,0,1-.55-.1,1.22154,1.22154,0,0,1-.35-.19995.55373.55373,0,0,1-.02-.18006v-6.78a1.54063,1.54063,0,0,1,1.54-1.54Z"/><circle class="cls-3" cx="21.66394" cy="8.85323" r="0.56087"/></g></svg>