<svg xmlns="http://www.w3.org/2000/svg" viewBox="0 0 30 30"><defs><style>.cls-1{fill:#fce5d0;}.cls-2{fill:#fafafa;}.cls-3{fill:#a1aad6;}.cls-4{fill:#b9c0ec;}.cls-5{fill:#2b4478;}.cls-6{fill:#1f365e;}.cls-7{fill:#db5b4d;}.cls-8{fill:#ead557;}.cls-9{fill:#04b58a;}.cls-10{fill:#f0715e;}.cls-11{fill:#f5e460;}.cls-12{fill:#00c69d;}</style></defs><g id="Layer_2" data-name="Layer 2"><path class="cls-1" d="M21.90564,17.21567a10.13729,10.13729,0,0,1-6.90724,3.258c-.10207,0-.21266,0-.31473-.00851a9.88738,9.88738,0,0,1-7.04332-3.07933.11762.11762,0,0,1-.03406-.02555c-.051-.05955-.09356-.10207-.13608-.14459a1.66973,1.66973,0,0,1,0-2.31373,10.13363,10.13363,0,0,1,6.89872-3.258c.11059,0,.21266,0,.31474.00852.11058-.00852.21266-.00852.32325-.00852a9.28491,9.28491,0,0,1,5.65681,2.15211,14.2638,14.2638,0,0,1,1.24191,1.10588A1.66963,1.66963,0,0,1,21.90564,17.21567Z"/><path class="cls-2" d="M20.85084,16.297a10.15588,10.15588,0,0,1-6.90723,3.258c-.10207,0-.21266,0-.31474-.00851a9.17,9.17,0,0,1-5.98852-2.16062.11762.11762,0,0,1-.03406-.02555c-.051-.05955-.09356-.10207-.13608-.14459a1.66973,1.66973,0,0,1,0-2.31373,10.13363,10.13363,0,0,1,6.89872-3.258c.11059,0,.21266,0,.31474.00852.11058-.00852.21266-.00852.32325-.00852a9.28491,9.28491,0,0,1,5.65681,2.15211c.068.05955.12756.1191.18711.17865A1.68031,1.68031,0,0,1,20.85084,16.297Z"/><path class="cls-3" d="M19.1751,16.0588a4.49258,4.49258,0,0,1-4.49143,4.49138,4.50071,4.50071,0,0,1-4.48292-4.49138,4.48719,4.48719,0,0,1,8.97435,0Z"/><path class="cls-4" d="M18.6477,15.59942a4.49078,4.49078,0,0,1-4.48291,4.49143,4.40856,4.40856,0,0,1-2.68807-.90168,4.48116,4.48116,0,0,1,5.912-6.70309A4.45723,4.45723,0,0,1,18.6477,15.59942Z"/><circle class="cls-5" cx="14.68792" cy="16.05893" r="1.46938"/><path class="cls-6" d="M16.15655,16.05465a1.46491,1.46491,0,0,1-1.46314,1.47165,1.23465,1.23465,0,0,1-.46784-.0851,1.45753,1.45753,0,0,0,0-2.76459,1.23559,1.23559,0,0,1,.46784-.08505A1.46307,1.46307,0,0,1,16.15655,16.05465Z"/><path class="cls-7" d="M8.29531,12.60518A3.56909,3.56909,0,0,1,7.43615,13.728a.59967.59967,0,0,1-.723,0c-.00851-.017-.02549-.02554-.04252-.04257a2.01949,2.01949,0,0,1-.19563-.18712H6.46646l-.03406-.034a4.11444,4.11444,0,0,1-.57844-.85916.82919.82919,0,0,1,.0851-.90168c.43379-.52739,1.13132.09356,1.13132.09356a1.35163,1.35163,0,0,1,.604-.2977H7.6999a.55275.55275,0,0,1,.36577.07652.67847.67847,0,0,1,.1446.12762A.82749.82749,0,0,1,8.29531,12.60518Z"/><path class="cls-8" d="M15.87459,9.4663l-.31473.30622a.24283.24283,0,0,0-.06807.22118l.06807.43383a.24885.24885,0,0,1-.36578.2637l-.3828-.19568a.25454.25454,0,0,0-.24672,0l-.38275.19568a.24887.24887,0,0,1-.36582-.2637l.05955-.36577.00852-.06806a.24285.24285,0,0,0-.06807-.22118l-.31473-.30622a.25336.25336,0,0,1,.14464-.43384l.42533-.06806a.25128.25128,0,0,0,.19563-.13608l.19563-.39132a.25591.25591,0,0,1,.20415-.14459.27429.27429,0,0,1,.2382.12761.02953.02953,0,0,1,.00852.017l.19563.39132a.25128.25128,0,0,0,.19563.13608l.05109.00851.37423.05955A.25336.25336,0,0,1,15.87459,9.4663Z"/><path class="cls-9" d="M23.76855,11.01448v.99524a.54823.54823,0,0,1-.54437.54443h-1.88l-.96974.56991.16162-.73154a.14984.14984,0,0,1-.034-.04252.48293.48293,0,0,1-.12761-.34028v-.99524a.5427.5427,0,0,1,.54442-.54442h2.30527A.5427.5427,0,0,1,23.76855,11.01448Z"/><path class="cls-10" d="M7.6999,12.25639a3.47848,3.47848,0,0,1-.85916,1.12286.57209.57209,0,0,1-.36577.1191H6.46646l-.03406-.034a4.11444,4.11444,0,0,1-.57844-.85916.82919.82919,0,0,1,.0851-.90168c.43379-.52739,1.13132.09356,1.13132.09356a1.35163,1.35163,0,0,1,.604-.2977H7.6999A.82079.82079,0,0,1,7.6999,12.25639Z"/><path class="cls-11" d="M15.10047,9.21958a.27429.27429,0,0,0-.07652.22118l.07652.43383a.25433.25433,0,0,1-.37428.2637l-.38275-.19563a.23837.23837,0,0,0-.23821,0l-.22969.1191.00852-.06806a.24285.24285,0,0,0-.06807-.22118l-.31473-.30622a.25336.25336,0,0,1,.14464-.43384l.42533-.06806a.25128.25128,0,0,0,.19563-.13608l.19563-.39132a.25591.25591,0,0,1,.20415-.14459.27429.27429,0,0,1,.2382.12761.02953.02953,0,0,1,.00852.017l.19563.39132a.25128.25128,0,0,0,.19563.13608l.05109.00851Z"/><path class="cls-12" d="M23.17309,10.66569V11.661a.54269.54269,0,0,1-.54437.54437h-1.88L20.5021,12.35a.48293.48293,0,0,1-.12761-.34028v-.99524a.5427.5427,0,0,1,.54442-.54442h2.22017A.72409.72409,0,0,1,23.17309,10.66569Z"/></g></svg>