<svg xmlns="http://www.w3.org/2000/svg" viewBox="0 0 30 30"><defs><style>.cls-1{fill:#fce5d0;}.cls-2{fill:#fafafa;}.cls-3{fill:#b4deec;}.cls-4{fill:#00c69d;}.cls-5{fill:#f5e460;}.cls-6{fill:#db5b4d;}.cls-7{fill:#f0715e;}</style></defs><g id="Layer_2" data-name="Layer 2"><path class="cls-1" d="M23.59419,6.73129v15.55a1.13951,1.13951,0,0,1-1.14,1.14h-15.55a1.13842,1.13842,0,0,1-1.13-1.02.48627.48627,0,0,1-.01-.12v-15.55a1.13951,1.13951,0,0,1,1.14-1.14h15.55a1.01523,1.01523,0,0,1,.49.12A1.11754,1.11754,0,0,1,23.59419,6.73129Z"/><path class="cls-2" d="M22.95417,5.81131v15.56a1.13741,1.13741,0,0,1-1.13,1.13995h-15.56a1.13609,1.13609,0,0,1-.49-.11.48627.48627,0,0,1-.01-.12v-15.55a1.13951,1.13951,0,0,1,1.14-1.14h15.55a1.01523,1.01523,0,0,1,.49.12A.34013.34013,0,0,1,22.95417,5.81131Z"/><rect class="cls-3" x="7.38417" y="8.14801" width="14.76" height="9.56118" rx="0.86099"/><path class="cls-4" d="M22.14417,12.494V16.8482a.86615.86615,0,0,1-.861.861H8.24516a.86616.86616,0,0,1-.861-.861v-2.009l7.38-2.36976.33618-.1066a1.19744,1.19744,0,0,1,1.189.2542l2.296,2.091Z"/><circle class="cls-5" cx="11.50892" cy="10.78334" r="0.91431"/><path class="cls-6" d="M21.20605,19.981a3.5692,3.5692,0,0,1-.85916,1.12286.5997.5997,0,0,1-.723,0c-.00851-.017-.02549-.02555-.04252-.04258a2.01939,2.01939,0,0,1-.19563-.18711H19.3772l-.03406-.034a4.1147,4.1147,0,0,1-.57844-.85916.82919.82919,0,0,1,.0851-.90168c.43378-.5274,1.13132.09356,1.13132.09356a1.3516,1.3516,0,0,1,.604-.29771h.02554a.5527.5527,0,0,1,.36577.07653.6782.6782,0,0,1,.1446.12762A.82749.82749,0,0,1,21.20605,19.981Z"/><path class="cls-7" d="M20.61064,19.63224a3.47834,3.47834,0,0,1-.85916,1.12285.572.572,0,0,1-.36577.11911H19.3772l-.03406-.034a4.1147,4.1147,0,0,1-.57844-.85916.82919.82919,0,0,1,.0851-.90168c.43378-.5274,1.13132.09356,1.13132.09356a1.3516,1.3516,0,0,1,.604-.29771h.02554A.82081.82081,0,0,1,20.61064,19.63224Z"/></g></svg>