<svg xmlns="http://www.w3.org/2000/svg" viewBox="0 0 30 30"><defs><style>.cls-1{fill:#ffbfab;}.cls-2{fill:#eaa492;}.cls-3{fill:#96c9d6;}.cls-4{fill:#b4deec;}</style></defs><g id="Layer_2" data-name="Layer 2"><path class="cls-1" d="M23.59385,13.4284a1.25317,1.25317,0,0,0-1.25317-1.25317H18.964l.27411-.3017a6.7682,6.7682,0,0,0,.68085-3.90875A1.2481,1.2481,0,0,0,18.67613,6.811h-.1366A1.27209,1.27209,0,0,0,17.29985,7.939c-.66974,4.595-6.93409,5.45972-6.93409,5.45972L10.101,15.27679l-.5736.1175.49639,5.28729,4.00562,1.22107h5.98065a1.25318,1.25318,0,0,0,1.25318-1.25318,1.23994,1.23994,0,0,0-.67041-1.09069,1.24328,1.24328,0,0,0-.12464-2.48121h.91339a1.25079,1.25079,0,0,0,.50537-2.396h.45374A1.25321,1.25321,0,0,0,23.59385,13.4284Z"/><path class="cls-2" d="M22.34385,14.68185h-.45a1.25535,1.25535,0,0,1-.51,2.4h-.91a1.24256,1.24256,0,0,1,.12,2.48,1.222,1.222,0,0,1,.67,1.09,1.25045,1.25045,0,0,1-1.25,1.25h-5.98l-1.41-.43h5.73a1.23931,1.23931,0,0,0,.59-2.34,1.24264,1.24264,0,0,0-.13-2.48h.92a1.25261,1.25261,0,0,0,.5-2.4h.46a1.24713,1.24713,0,0,0,.94-2.07h.71a1.25,1.25,0,0,1,0,2.5Z"/><path class="cls-2" d="M19.31382,11.74185h-2l.27-.3a6.72075,6.72075,0,0,0,.68-3.91,1.34464,1.34464,0,0,0-.21-.61,1.13646,1.13646,0,0,1,.49-.11h.14a1.2523,1.2523,0,0,1,1.24,1.16A6.90232,6.90232,0,0,1,19.31382,11.74185Z"/><path class="cls-3" d="M10.71452,13.71155v6.78a1.54067,1.54067,0,0,1-1.54,1.54h-3.24v-9.86h3.24a1.67533,1.67533,0,0,1,.55.1A1.53592,1.53592,0,0,1,10.71452,13.71155Z"/><path class="cls-4" d="M9.95451,13.07159v6.79a1.52363,1.52363,0,0,1-1.53,1.53h-2.49v-9.22h3.24a1.67533,1.67533,0,0,1,.55.1A1.46681,1.46681,0,0,1,9.95451,13.07159Z"/><circle class="cls-3" cx="7.8644" cy="19.98935" r="0.56087"/></g></svg>