<svg xmlns="http://www.w3.org/2000/svg" viewBox="0 0 30 30"><defs><style>.cls-1{fill:#ead557;}.cls-2{fill:#f5e460;}.cls-3{fill:#2b4478;}.cls-4{fill:#213a66;}.cls-5{fill:#96c9d6;}.cls-6{fill:#b4deec;}.cls-7{fill:#db5b4d;}.cls-8{fill:#f0715e;}</style></defs><g id="Layer_2" data-name="Layer 2"><path class="cls-1" d="M23.71418,13.45126v5.4c0,1.31-.79,2.37-1.77,2.37h-14.21a1.717,1.717,0,0,1-1.49-1.1,2.92348,2.92348,0,0,1-.28-1.27v-5.4a2.8311,2.8311,0,0,1,.23-1.13995,1.73573,1.73573,0,0,1,1.54-1.23h14.21a1.63422,1.63422,0,0,1,.22.02A2.23332,2.23332,0,0,1,23.71418,13.45126Z"/><path class="cls-2" d="M22.44416,12.37131v5.4c0,1.3-.79,2.37-1.77,2.37h-14.21a1.64557,1.64557,0,0,1-.22-.01995,2.92348,2.92348,0,0,1-.28-1.27v-5.4a2.8311,2.8311,0,0,1,.23-1.13995,1.73573,1.73573,0,0,1,1.54-1.23h14.21a1.63422,1.63422,0,0,1,.22.02A2.92322,2.92322,0,0,1,22.44416,12.37131Z"/><path class="cls-1" d="M9.66153,15.03019h.56253v3.07433H12.0863V18.478H9.66153Z"/><path class="cls-1" d="M13.27418,15.03019V18.478h-.56253V15.03019Z"/><path class="cls-1" d="M15.21308,18.478l-1.42247-3.44781h.60749l.679,1.69855a13.45574,13.45574,0,0,1,.46571,1.28875H15.556a13.2669,13.2669,0,0,1,.49741-1.28357l.73717-1.70373h.60172L15.83382,18.478Z"/><path class="cls-1" d="M20.11852,16.86188H18.42458v1.24264h1.88817V18.478h-2.4507V15.03019h2.3533v.37348H18.42458V16.493h1.69394Z"/><path class="cls-3" d="M9.43856,14.81505h.56253v3.07433h1.86224v.37349H9.43856Z"/><path class="cls-3" d="M13.05121,14.81505v3.44782h-.56253V14.81505Z"/><path class="cls-3" d="M14.99011,18.26287l-1.42247-3.44782h.60749l.679,1.69855a13.45671,13.45671,0,0,1,.46571,1.28875H15.333a13.26778,13.26778,0,0,1,.49741-1.28356l.73717-1.70374h.60172l-1.55849,3.44782Z"/><path class="cls-3" d="M19.89555,16.64674H18.20161v1.24264h1.88817v.37349h-2.4507V14.81505h2.3533v.37349H18.20161v1.08933h1.69394Z"/><path class="cls-4" d="M19.929,9.03516v3.42628a.67917.67917,0,0,1-1.02732.58141l-2.77717-1.66516a.67215.67215,0,0,1-.31044-.7338.65717.65717,0,0,1,.29918-.42334l2.77148-1.76111A.653.653,0,0,1,19.5,8.403.67639.67639,0,0,1,19.929,9.03516Z"/><path class="cls-3" d="M19.5,8.403v3.2513a.67981.67981,0,0,1-1.033.58141l-2.653-1.59179a.65717.65717,0,0,1,.29918-.42334l2.77148-1.76111A.653.653,0,0,1,19.5,8.403Z"/><path class="cls-5" d="M17.26469,8.99v3.21178a.907.907,0,0,1-.90877.90312H11.84024a.90124.90124,0,0,1-.84669-.59267.819.819,0,0,1-.05647-.31045V8.99a.90219.90219,0,0,1,.90316-.90316h4.51568a.72711.72711,0,0,1,.31045.06212A.8858.8858,0,0,1,17.26469,8.99Z"/><path class="cls-6" d="M16.7228,8.45379v3.21178a.90214.90214,0,0,1-.90312.90312H11.304a.8191.8191,0,0,1-.31044-.05643.819.819,0,0,1-.05647-.31045V8.99a.90219.90219,0,0,1,.90316-.90316h4.51568a.72711.72711,0,0,1,.31045.06212A.79058.79058,0,0,1,16.7228,8.45379Z"/><path class="cls-7" d="M14.84453,10.87346l-1.19131.71635a.29056.29056,0,0,1-.43993-.25307V9.869a.29347.29347,0,0,1,.4477-.24915l1.16407.73969.02724.01559A.29319.29319,0,0,1,14.84453,10.87346Z"/><path class="cls-8" d="M14.82506,10.35956a.30813.30813,0,0,1-.13627.19466l-1.19131.71635a.28565.28565,0,0,1-.28419.00777V9.869a.29347.29347,0,0,1,.4477-.24915Z"/></g></svg>