<svg xmlns="http://www.w3.org/2000/svg" viewBox="0 0 30 30"><defs><style>.cls-1{fill:#f0715e;}.cls-2{fill:#db5b4d;}.cls-3{fill:#fce5d0;}.cls-4{fill:#fafafa;}</style></defs><g id="Layer_2" data-name="Layer 2"><path class="cls-1" d="M21.4864,9.05366H8.04194a2.06252,2.06252,0,0,0-2.0625,2.0625v4.53339a2.06248,2.06248,0,0,0,2.0625,2.0625h4.03742l1.978,3.4411a.81529.81529,0,0,0,1.4137,0l1.978-3.4411H21.4864a2.06248,2.06248,0,0,0,2.0625-2.0625V11.11616A2.06252,2.06252,0,0,0,21.4864,9.05366Z"/><path class="cls-2" d="M23.5442,11.10965v4.54a2.05715,2.05715,0,0,1-2.06006,2.06006h-4.04l-1.97,3.43994a.81728.81728,0,0,1-1.42,0l-1.97-3.43994h-4.04a2.05715,2.05715,0,0,1-2.06006-2.06006v-.24a2.057,2.057,0,0,0,1.7.9h4.03l1.98,3.44a.82485.82485,0,0,0,1.42,0l1.97-3.44h4.04a2.06559,2.06559,0,0,0,2.06-2.07v-4.29A2.01814,2.01814,0,0,1,23.5442,11.10965Z"/><path class="cls-3" d="M17.1,13.211a7.00531,7.00531,0,0,1-1.68634,2.20393,1.17707,1.17707,0,0,1-1.41915,0c-.01671-.03343-.05-.05014-.08346-.08356a3.96416,3.96416,0,0,1-.384-.36727h-.01671l-.06685-.06675A8.07621,8.07621,0,0,1,12.30815,13.211a1.6275,1.6275,0,0,1,.167-1.7698c.85143-1.03516,2.22054.18363,2.22054.18363a2.65311,2.65311,0,0,1,1.18547-.58433h.05014a1.08492,1.08492,0,0,1,.71793.15021,1.33165,1.33165,0,0,1,.28381.25049A1.62418,1.62418,0,0,1,17.1,13.211Z"/><path class="cls-4" d="M15.93132,12.52639A6.82739,6.82739,0,0,1,14.245,14.73031a1.12281,1.12281,0,0,1-.71793.23378h-.01671l-.06685-.06675A8.07621,8.07621,0,0,1,12.30815,13.211a1.6275,1.6275,0,0,1,.167-1.7698c.85143-1.03516,2.22054.18363,2.22054.18363a2.65311,2.65311,0,0,1,1.18547-.58433h.05014A1.6111,1.6111,0,0,1,15.93132,12.52639Z"/></g></svg>