<svg xmlns="http://www.w3.org/2000/svg" viewBox="0 0 30 30"><defs><style>.cls-1{fill:#213a66;}.cls-2{fill:#a1aad6;}.cls-3{fill:#b9c0ec;}.cls-4{fill:#2b4478;}.cls-5{fill:#f5e460;}</style></defs><g id="Layer_2" data-name="Layer 2"><rect class="cls-1" x="18.3912" y="7.62733" width="1.76631" height="10.23396" rx="0.33583"/><path class="cls-2" d="M18.16257,8.16677v9.16361l-.2536-.12593a17.13955,17.13955,0,0,0-5.49958-1.52081,4.84329,4.84329,0,0,0-.51589-.04843v.0097l-.20983-.0097-.14862-.00969-.12242-.0097c-.035,0-.06121-.00969-.09617-.00969l-.41966-.029-.08747-.0097-1.53885-.10654-.236-.01939-.48963-.02909-.14868-.00964-.72566-.05811-.81313-.05812-.42848-.02909A.86918.86918,0,0,1,5.6682,14.376V11.12119a.86918.86918,0,0,1,.76067-.88146l4.46793-.31968.41966-.029a21.49525,21.49525,0,0,0,5.02746-1.01714c.5858-.20339,1.13663-.40683,1.60881-.61991Z"/><path class="cls-3" d="M16.34392,8.87388v5.14368a.87828.87828,0,0,1-1.11043.91049,25.27472,25.27472,0,0,0-4.80546-.82639c-.17488-.029-.187-.47159-.35312-.48129v.0097l-.20983-.0097-.14868-.0097L9.594,13.601c-.035,0-.06121-.00964-.09622-.00964l-.41967-.02909-.08741-.00969L7.45189,13.446l-.23609-.0194-.48963-.029-.14862-.00969-.72572-.05812-.18363-.0097V11.12119a.86918.86918,0,0,1,.76067-.88146l4.46793-.31968.41966-.029A21.49525,21.49525,0,0,0,16.34392,8.87388Z"/><path class="cls-2" d="M10.97357,21.21167l-1.09709-.12326a.8788.8788,0,0,1-.66009-.61535L7.45721,14.41647l1.92971-.688L11.3948,20.6413C11.49723,20.994,11.30342,21.24873,10.97357,21.21167Z"/><path class="cls-1" d="M12.40939,15.68364v.86212a1.25949,1.25949,0,0,1-1.18909,1.31738H9.73391l-.01751-.06782-.271-.94927a.19256.19256,0,0,0,.13993.04842h1.635a.33162.33162,0,0,0,.31475-.34871v-.92024l.14862.00969.20983.0097v-.0097A4.84329,4.84329,0,0,1,12.40939,15.68364Z"/><path class="cls-4" d="M11.68367,15.63521V16.478a1.25948,1.25948,0,0,1-1.18909,1.31737H9.7164l-.27979-.96866h1.058a.33163.33163,0,0,0,.31475-.34871V15.5674l.08747.0097.41966.029c.035,0,.06121.00969.09617.00969Z"/><path class="cls-3" d="M10.07491,21.06942,8.982,20.94349a.89291.89291,0,0,1-.66451-.62l-1.46013-5.037-.2973-1.01715L8.00273,13.756l.48963-.17436.11367.39713.11367.3778.31475,1.0849.236.81371.16613.57148.00875.01939.271.94927.01751.06782.76942,2.63474C10.5995,20.84665,10.40717,21.09851,10.07491,21.06942Z"/><rect class="cls-4" x="17.50804" y="7.62736" width="1.76631" height="10.23396" rx="0.33583"/><path class="cls-1" d="M10.8968,9.92005V15.5771l-4.46793-.31968A.86918.86918,0,0,1,5.6682,14.376V11.12119a.86918.86918,0,0,1,.76067-.88146l3.39245-.24217Z"/><path class="cls-4" d="M9.82132,9.99756v3.31283a.92322.92322,0,0,1-.94425.97836L5.6682,14.05628V11.12119a.86918.86918,0,0,1,.76067-.88146Z"/><path class="cls-5" d="M21.17841,15.78048a.40947.40947,0,0,1-.26384-.09838.51933.51933,0,0,1-.08453-.67826c1.367-2.00355-.00341-4.36846-.01708-4.39211a.51734.51734,0,0,1,.12552-.67069.41129.41129,0,0,1,.60538.13906c.07087.12014,1.71794,2.9656-.01708,5.50835A.42145.42145,0,0,1,21.17841,15.78048Z"/><path class="cls-5" d="M22.51468,16.50414a.40943.40943,0,0,1-.26383-.09838.51933.51933,0,0,1-.08454-.67826c1.81187-2.65626.05807-5.71173-.01793-5.84038a.51722.51722,0,0,1,.12723-.66974.41052.41052,0,0,1,.60452.13906c.08966.1523,2.17048,3.74885-.01708,6.95567A.42145.42145,0,0,1,22.51468,16.50414Z"/></g></svg>