<svg xmlns="http://www.w3.org/2000/svg" viewBox="0 0 30 30"><defs><style>.cls-1{fill:#b4deec;}.cls-2{fill:#96c9d6;}</style></defs><g id="Layer_2" data-name="Layer 2"><path class="cls-1" d="M8.31847,13.12986l7.56449,1.363L8.31621,15.85621a.79256.79256,0,0,0-.63405.61212L6.504,21.90377a.70436.70436,0,0,0,1.00546.77816l15.18422-7.65485a.64172.64172,0,0,0,.00188-1.14509L7.50608,6.1617A.70436.70436,0,0,0,6.498,6.93606l1.18578,5.57856A.79258.79258,0,0,0,8.31847,13.12986Z"/><path class="cls-2" d="M22.69192,14.94344l-15.19,7.65a.69519.69519,0,0,1-1-.77l.05-.24a.67388.67388,0,0,0,.3-.08l15.17994-7.65a.54643.54643,0,0,0,.26-.26l.4.2A.64522.64522,0,0,1,22.69192,14.94344Z"/></g></svg>