<svg xmlns="http://www.w3.org/2000/svg" viewBox="0 0 30 30"><defs><style>.cls-1{fill:#b9c0ec;}.cls-2{fill:#213a66;}.cls-3{fill:#2b4478;}.cls-4{fill:#a1aad6;}.cls-5{fill:#799160;}.cls-6{fill:#db5b4d;}.cls-7{fill:#f0715e;}</style></defs><g id="Layer_2" data-name="Layer 2"><rect class="cls-1" x="13.50716" y="18.57909" width="2.51402" height="2.46053"/><path class="cls-2" d="M18.06367,6.82354v9.07083a1.46711,1.46711,0,0,1-1.49491,1.40784H12.96948A1.47085,1.47085,0,0,1,11.46,15.89437V6.82354a1.15718,1.15718,0,0,1,.10161-.49341,1.53152,1.53152,0,0,1,1.40784-.91434h3.59928A1.46709,1.46709,0,0,1,18.06367,6.82354Z"/><path class="cls-3" d="M16.5397,7.73789v9.07083a1.15742,1.15742,0,0,1-.10152.49349h-3.4687a2.60436,2.60436,0,0,1-.31934-.029,1.83546,1.83546,0,0,1-.26123-.08708.88316.88316,0,0,1-.26123-.13057,1.09814,1.09814,0,0,1-.20321-.15971c-.07255-.07255-.13057-.1451-.20312-.21765-.05811-.11613-.13066-.23226-.17424-.3483a1.21663,1.21663,0,0,1-.058-.21774c0-.04358-.01453-.07255-.01453-.1016a.36026.36026,0,0,1-.01453-.11614V6.82354a1.15718,1.15718,0,0,1,.10161-.49341h3.4687A1.47044,1.47044,0,0,1,16.5397,7.73789Z"/><path class="cls-3" d="M16.91314,18.81318H12.6152a3.95575,3.95575,0,0,1-3.81834-4.08012V11.81789h.918v2.91517a3.00466,3.00466,0,0,0,2.90029,3.09913h4.29794a3.00466,3.00466,0,0,0,2.90029-3.09913V11.81789h.91805v2.91517A3.95575,3.95575,0,0,1,16.91314,18.81318Z"/><rect class="cls-3" x="7.29661" y="11.36409" width="14.93512" height="1.05889"/><rect class="cls-1" x="21.50916" y="10.53456" width="1.90941" height="2.59004" rx="0.37658"/><rect class="cls-1" x="6.10977" y="10.52287" width="1.90941" height="2.59004" rx="0.37658"/><path class="cls-4" d="M17.77339,22.51245v.11614a.77494.77494,0,0,1-.78378.79821H12.53409a.78374.78374,0,0,1-.78377-.79821v-.11614a1.77437,1.77437,0,0,1,.76925-1.46577,1.80088,1.80088,0,0,1,.98689-.30481h2.51078A1.76533,1.76533,0,0,1,17.77339,22.51245Z"/><path class="cls-1" d="M16.75744,22.80274v.11613a.82361.82361,0,0,1-.17416.50793H12.53409a.78374.78374,0,0,1-.78377-.79821v-.11614a1.77437,1.77437,0,0,1,.76925-1.46577h2.46728A1.76527,1.76527,0,0,1,16.75744,22.80274Z"/><path class="cls-4" d="M18.06367,10.95989v4.83288a1.51473,1.51473,0,0,1-1.49491,1.50944h-.13058a1.15742,1.15742,0,0,0,.10152-.49349V10.95989Z"/><path class="cls-1" d="M16.5397,10.95989v5.84883a1.15742,1.15742,0,0,1-.10152.49349h-3.4687a2.60436,2.60436,0,0,1-.31934-.029,1.83546,1.83546,0,0,1-.26123-.08708.88316.88316,0,0,1-.26123-.13057,1.09814,1.09814,0,0,1-.20321-.15971c-.07255-.07255-.13057-.1451-.20312-.21765-.05811-.11613-.13066-.23226-.17424-.3483a1.21663,1.21663,0,0,1-.058-.21774c0-.04358-.01453-.07255-.01453-.1016a1.09718,1.09718,0,0,1-.01453-.21774V10.95989Z"/><path class="cls-5" d="M15.9669,14.649a1.0309,1.0309,0,0,1-1.02785,1.028,1.011,1.011,0,0,1-.23987-.0343,1.03128,1.03128,0,0,1,0-2.00435,1.011,1.011,0,0,1,.23987-.0343A1.03464,1.03464,0,0,1,15.9669,14.649Z"/><path class="cls-6" d="M15.792,14.649a1.0309,1.0309,0,0,1-1.02785,1.028,1.01093,1.01093,0,0,1-.23986-.0343,1.03127,1.03127,0,0,1,0-2.00435,1.01093,1.01093,0,0,1,.23986-.0343A1.03464,1.03464,0,0,1,15.792,14.649Z"/><path class="cls-7" d="M15.29524,14.649a1.02825,1.02825,0,0,1-.77093.99365,1.03127,1.03127,0,0,1,0-2.00435A1.03336,1.03336,0,0,1,15.29524,14.649Z"/></g></svg>