<svg xmlns="http://www.w3.org/2000/svg" viewBox="0 0 30 30"><defs><style>.cls-1{fill:#f5e460;}.cls-2{fill:#ead557;}.cls-3{fill:#fce5d0;}.cls-4{fill:#fafafa;}</style></defs><g id="Layer_2" data-name="Layer 2"><path class="cls-1" d="M21.4864,10.09207H8.04194a2.06252,2.06252,0,0,0-2.0625,2.0625V16.688a2.06248,2.06248,0,0,0,2.0625,2.0625h4.03742l1.978,3.4411a.81529.81529,0,0,0,1.4137,0l1.978-3.4411H21.4864a2.06248,2.06248,0,0,0,2.0625-2.0625V12.15457A2.06252,2.06252,0,0,0,21.4864,10.09207Z"/><path class="cls-2" d="M23.5442,12.045v4.54A2.05715,2.05715,0,0,1,21.48414,18.645h-4.04l-1.97,3.43994a.81728.81728,0,0,1-1.42,0l-1.97-3.43994h-4.04A2.05716,2.05716,0,0,1,5.98414,16.585v-.24a2.057,2.057,0,0,0,1.7.9h4.03l1.98,3.44a.82486.82486,0,0,0,1.42,0l1.97-3.44h4.04a2.06559,2.06559,0,0,0,2.06-2.07v-4.29A2.01811,2.01811,0,0,1,23.5442,12.045Z"/><path class="cls-3" d="M15.71418,16.65127a.94956.94956,0,0,1-.95.95.92307.92307,0,0,1-.62-.24.90881.90881,0,0,1-.33-.71.95215.95215,0,0,1,.56-.87.85985.85985,0,0,1,.39-.09.73085.73085,0,0,1,.3.06.16128.16128,0,0,1,.09.03A.95216.95216,0,0,1,15.71418,16.65127Z"/><path class="cls-4" d="M15.39418,16.47128a.956.956,0,0,1-.95.95.76567.76567,0,0,1-.3-.06.90881.90881,0,0,1-.33-.71.95215.95215,0,0,1,.56-.87h-.6a.74938.74938,0,0,1,.28-.18.8898.8898,0,0,1,.78,0,.82565.82565,0,0,1,.23.15.13818.13818,0,0,1,.04.03A.96737.96737,0,0,1,15.39418,16.47128Z"/><path class="cls-3" d="M17.50416,15.78128h-5.48l.03-.18.44-2.42.04-.21a2.10763,2.10763,0,0,1,2.04-1.73h.38a1.97767,1.97767,0,0,1,.83.19,2.11268,2.11268,0,0,1,1.21,1.54l.03.14Z"/><path class="cls-3" d="M18.02418,16.09128a.59974.59974,0,0,1-.59.6h-5.34a.6153.6153,0,0,1-.59-.6.59769.59769,0,0,1,.59-.59h5.34a.34013.34013,0,0,1,.1.01A.59991.59991,0,0,1,18.02418,16.09128Z"/><path class="cls-4" d="M17.18415,15.60129h-5.13l.44-2.42.04-.21a2.10763,2.10763,0,0,1,2.04-1.73h.38a1.97767,1.97767,0,0,1,.83.19,2.09568,2.09568,0,0,1,.89,1.35l.02.15Z"/><path class="cls-4" d="M17.69416,15.91128a.59324.59324,0,0,1-.59.6h-5.33a.34013.34013,0,0,1-.1-.01.55018.55018,0,0,1-.17-.41.59769.59769,0,0,1,.59-.59h5.34a.34013.34013,0,0,1,.1.01A.57617.57617,0,0,1,17.69416,15.91128Z"/></g></svg>