<svg xmlns="http://www.w3.org/2000/svg" viewBox="0 0 30 30"><defs><style>.cls-1{fill:#a1aad6;}.cls-2{fill:#b9c0ec;}</style></defs><g id="Layer_2" data-name="Layer 2"><path class="cls-1" d="M21.327,19.29049h-.81334a.61894.61894,0,0,1-.61894-.61894v-5.712A2.34067,2.34067,0,0,0,17.554,10.6189H11.22311V8.56768H17.554a4.39189,4.39189,0,0,1,4.39188,4.39189v5.712A.61893.61893,0,0,1,21.327,19.29049Z"/><path class="cls-1" d="M12.91176,12.109V7.0776a.294.294,0,0,0-.44373-.283L8.756,9.31032a.353.353,0,0,0,0,.56593l3.712,2.51568A.294.294,0,0,0,12.91176,12.109Z"/><path class="cls-1" d="M7.92841,11.22088h.81334a.61893.61893,0,0,1,.61894.61893v5.712a2.34067,2.34067,0,0,0,2.34066,2.34067h6.33093v2.05121H11.70135A4.39188,4.39188,0,0,1,7.30947,17.5518v-5.712A.61893.61893,0,0,1,7.92841,11.22088Z"/><path class="cls-1" d="M16.34362,18.05926v5.03136a.294.294,0,0,0,.44373.283l3.71205-2.51568a.353.353,0,0,0,0-.56594l-3.71205-2.51568A.294.294,0,0,0,16.34362,18.05926Z"/><polygon class="cls-1" points="8.614 8.268 8.614 9.593 10.405 10.524 11.223 9.293 10.295 8.268 8.614 8.268"/><polygon class="cls-1" points="18.338 19.592 18.493 21.944 20.641 20.575 20.641 19.592 18.338 19.592"/><path class="cls-2" d="M21.327,17.96485h-.81334a.61894.61894,0,0,1-.61894-.61894v-5.712A2.34067,2.34067,0,0,0,17.554,9.29326H11.22311V7.242H17.554a4.39189,4.39189,0,0,1,4.39188,4.39189v5.712A.61893.61893,0,0,1,21.327,17.96485Z"/><path class="cls-2" d="M12.91176,10.78333V5.752a.294.294,0,0,0-.44373-.283L8.756,7.98468a.353.353,0,0,0,0,.56593l3.712,2.51568A.294.294,0,0,0,12.91176,10.78333Z"/><path class="cls-2" d="M7.92841,9.89524h.81334a.61893.61893,0,0,1,.61894.61893v5.712a2.34067,2.34067,0,0,0,2.34066,2.34067h6.33093V20.618H11.70135a4.39188,4.39188,0,0,1-4.39188-4.39188v-5.712A.61893.61893,0,0,1,7.92841,9.89524Z"/><path class="cls-2" d="M16.34362,17.07676v5.03136a.294.294,0,0,0,.44373.283l3.71205-2.51568a.353.353,0,0,0,0-.56594l-3.71205-2.51568A.294.294,0,0,0,16.34362,17.07676Z"/></g></svg>