<svg xmlns="http://www.w3.org/2000/svg" viewBox="0 0 30 30"><defs><style>.cls-1{fill:#ecf2ff;}.cls-2{fill:#fafafa;}.cls-3{fill:#f0715e;}.cls-4{fill:#2b4478;}.cls-5{fill:#a1aad6;}.cls-6{fill:#b9c0ec;}</style></defs><g id="Layer_2" data-name="Layer 2"><path class="cls-1" d="M18.52418,12.33127a6.00086,6.00086,0,1,1-.43-2.2A5.75238,5.75238,0,0,1,18.52418,12.33127Z"/><path class="cls-2" d="M18.52418,12.33127a5.97209,5.97209,0,0,1-9.44,4.86V11.6813a1.545,1.545,0,0,1,1.55-1.55005h7.46a5.533,5.533,0,0,1,.42,1.95A2.088,2.088,0,0,1,18.52418,12.33127Z"/><path class="cls-3" d="M18.51417,12.08127h-9.43v-.4a1.545,1.545,0,0,1,1.55-1.55005h7.46A5.533,5.533,0,0,1,18.51417,12.08127Z"/><path class="cls-4" d="M12.60191,19.17277A6.85381,6.85381,0,1,1,19.45572,12.319,6.86112,6.86112,0,0,1,12.60191,19.17277Zm0-12.37182a5.518,5.518,0,1,0,5.518,5.518A5.52414,5.52414,0,0,0,12.60191,6.801Z"/><path class="cls-4" d="M22.44561,22.83057a.665.665,0,0,1-.47222-.19568l-5.34321-5.3432a.66783.66783,0,0,1,.94446-.94446l5.3432,5.34321a.66791.66791,0,0,1-.47223,1.14013Z"/><path class="cls-5" d="M23.39023,23.1114a1.38695,1.38695,0,0,1-.94.38995,1.33028,1.33028,0,0,1-.34-.05,1.28218,1.28218,0,0,1-.61-.34l-3.31-3.31a.51347.51347,0,0,1,0-.71l1.19-1.18c.00995-.01.00995-.01.02-.01a.47683.47683,0,0,1,.68.01l3.31,3.31A1.33988,1.33988,0,0,1,23.39023,23.1114Z"/><path class="cls-6" d="M22.72025,23.1114a1.28245,1.28245,0,0,1-.61.34,1.28218,1.28218,0,0,1-.61-.34l-3.31-3.31a.51347.51347,0,0,1,0-.71l1.19-1.18c.00995-.01.00995-.01.02-.01l3.32,3.32A1.33988,1.33988,0,0,1,22.72025,23.1114Z"/><circle class="cls-3" cx="12.68452" cy="15.08605" r="1.59317"/><circle class="cls-2" cx="12.68452" cy="14.63522" r="0.46214"/><path class="cls-2" d="M13.52771,15.999H11.84133a.84319.84319,0,0,1,1.68638,0Z"/></g></svg>