<svg xmlns="http://www.w3.org/2000/svg" xmlns:xlink="http://www.w3.org/1999/xlink" viewBox="0 0 30 30"><defs><style>.cls-1{fill:none;}.cls-2{clip-path:url(#clip-path);}.cls-3{fill:#2b4478;}.cls-4{fill:#04b58a;}.cls-5{fill:#00c69d;}.cls-6{fill:#fafafa;}.cls-7{fill:#ead557;}.cls-8{fill:#f5e460;}.cls-9{fill:#db5b4d;}.cls-10{fill:#f0715e;}</style><clipPath id="clip-path"><rect class="cls-1" x="7.30503" y="8.11512" width="14.5583" height="17.1282"/></clipPath></defs><g id="Layer_2" data-name="Layer 2"><g class="cls-2"><path class="cls-3" d="M18.65593,24.15342a.994.994,0,0,1-.5903-.1934l-8.187-6a1.0004,1.0004,0,0,1,0-1.61328l8.18705-6A1.00015,1.00015,0,0,1,19.24823,11.96l-7.08642,5.19336,7.08642,5.19334a1.00017,1.00017,0,0,1-.5923,1.8067Z"/><path class="cls-4" d="M20.74993,22.47842a2.76518,2.76518,0,1,1-2.765-2.765,2.6873,2.6873,0,0,1,1.2458.2974,2.76924,2.76924,0,0,1,1.5192,2.4676Z"/><path class="cls-5" d="M20.21933,22.12472a2.765,2.765,0,0,1-2.7649,2.765,2.68909,2.68909,0,0,1-1.24588-.2974,2.76155,2.76155,0,0,1,1.77638-4.8789,2.6873,2.6873,0,0,1,1.2458.2974,2.7377,2.7377,0,0,1,.9886,2.1139Z"/><path class="cls-6" d="M17.98263,22.49832a.80215.80215,0,1,0-.80216-.8021A.80208.80208,0,0,0,17.98263,22.49832Z"/><path class="cls-6" d="M19.44613,24.06342H16.51907a1.46353,1.46353,0,1,1,2.92706,0Z"/><path class="cls-7" d="M12.835,17.06043a2.76513,2.76513,0,1,1-2.765-2.765,2.68846,2.68846,0,0,1,1.24584.29739A2.76944,2.76944,0,0,1,12.835,17.06043Z"/><path class="cls-8" d="M12.30448,16.70677a2.76469,2.76469,0,0,1-2.76494,2.765,2.68906,2.68906,0,0,1-1.24589-.2973,2.76162,2.76162,0,0,1,1.77636-4.879,2.68843,2.68843,0,0,1,1.24584.29739,2.73818,2.73818,0,0,1,.98863,2.11391Z"/><path class="cls-6" d="M10.06773,17.08041a.80215.80215,0,1,0-.80215-.80215A.80215.80215,0,0,0,10.06773,17.08041Z"/><path class="cls-6" d="M11.53127,18.64542H8.60418a1.46355,1.46355,0,0,1,2.92709,0Z"/><path class="cls-9" d="M21.86333,10.8801a2.76509,2.76509,0,1,1-2.765-2.765,2.68873,2.68873,0,0,1,1.2459.29739,2.76958,2.76958,0,0,1,1.5191,2.46761Z"/><path class="cls-10" d="M21.33283,10.52644a2.76483,2.76483,0,0,1-2.7649,2.76494A2.68885,2.68885,0,0,1,17.322,12.994a2.7616,2.7616,0,0,1,1.7763-4.87891,2.68873,2.68873,0,0,1,1.2459.29739,2.73806,2.73806,0,0,1,.9886,2.114Z"/><path class="cls-6" d="M19.096,10.90008a.80215.80215,0,1,0-.8021-.80215A.80214.80214,0,0,0,19.096,10.90008Z"/><path class="cls-6" d="M20.55963,12.46511h-2.9271a1.46355,1.46355,0,0,1,2.9271,0Z"/></g></g></svg>