<svg xmlns="http://www.w3.org/2000/svg" viewBox="0 0 30 30"><defs><style>.cls-1{fill:#213a66;}.cls-2{fill:#2b4478;}.cls-3{fill:#96c9d6;}.cls-4{fill:#b4deec;}.cls-5{fill:#db5b4d;}.cls-6{fill:#f0715e;}</style></defs><g id="Layer_2" data-name="Layer 2"><path class="cls-1" d="M23.30918,11.42148v6.512a1.29083,1.29083,0,0,1-1.95253,1.105l-5.2783-3.16482a1.2775,1.2775,0,0,1-.59-1.39465,1.24911,1.24911,0,0,1,.56862-.80461l5.2675-3.34719a1.24109,1.24109,0,0,1,1.1694-.10732A1.28554,1.28554,0,0,1,23.30918,11.42148Z"/><path class="cls-2" d="M22.49383,10.21993v6.17944a1.292,1.292,0,0,1-1.96327,1.105l-5.04225-3.02535a1.24911,1.24911,0,0,1,.56862-.80461l5.2675-3.34719A1.24109,1.24109,0,0,1,22.49383,10.21993Z"/><path class="cls-3" d="M18.24546,11.33571V17.44a1.7238,1.7238,0,0,1-1.72722,1.71648H7.9357a1.71293,1.71293,0,0,1-1.60922-1.12644,1.55658,1.55658,0,0,1-.10732-.59V11.33571A1.71471,1.71471,0,0,1,7.9357,9.61916h8.58254a1.382,1.382,0,0,1,.59.11806A1.68357,1.68357,0,0,1,18.24546,11.33571Z"/><path class="cls-4" d="M17.21553,10.31652v6.10433a1.7146,1.7146,0,0,1-1.71648,1.71648H6.91652a1.55654,1.55654,0,0,1-.59-.10726,1.55658,1.55658,0,0,1-.10732-.59V11.33571A1.71471,1.71471,0,0,1,7.9357,9.61916h8.58254a1.382,1.382,0,0,1,.59.11806A1.50223,1.50223,0,0,1,17.21553,10.31652Z"/><path class="cls-5" d="M13.64567,14.91536l-2.2642,1.3615a.55224.55224,0,0,1-.83613-.481V13.00631a.55776.55776,0,0,1,.8509-.47352l2.21244,1.40585.05176.02962A.55724.55724,0,0,1,13.64567,14.91536Z"/><path class="cls-6" d="M13.60868,13.93864a.58564.58564,0,0,1-.259.37l-2.2642,1.3615a.54291.54291,0,0,1-.54014.01477V13.00631a.55776.55776,0,0,1,.8509-.47352Z"/></g></svg>